<?xml version="1.0" encoding="UTF-8" standalone="no"?>
<!DOCTYPE svg PUBLIC "-//W3C//DTD SVG 1.1//EN" "http://www.w3.org/Graphics/SVG/1.1/DTD/svg11.dtd">
<svg width="100%" height="100%" viewBox="0 0 800 800" version="1.1" xmlns="http://www.w3.org/2000/svg" xmlns:xlink="http://www.w3.org/1999/xlink" xml:space="preserve" xmlns:serif="http://www.serif.com/" style="fill-rule:evenodd;clip-rule:evenodd;stroke-linejoin:round;stroke-miterlimit:2;">
    <g transform="matrix(1.06379e-16,1.73731,-1.73731,1.06379e-16,1211.48,-264.901)">
        <path d="M375.895,250.497C377.188,247.912 379.829,246.279 382.719,246.279C385.609,246.279 388.251,247.912 389.543,250.497C423.102,317.615 570.425,612.26 605.463,682.337C607.069,685.549 606.898,689.363 605.01,692.418C603.122,695.472 599.787,697.332 596.196,697.332C524.157,697.332 241.281,697.332 169.242,697.332C165.651,697.332 162.316,695.472 160.429,692.418C158.541,689.363 158.369,685.549 159.975,682.337C195.013,612.26 342.336,317.615 375.895,250.497Z"/>
    </g>
</svg>
