<?xml version="1.0" encoding="UTF-8" standalone="no"?>
<!DOCTYPE svg PUBLIC "-//W3C//DTD SVG 1.1//EN" "http://www.w3.org/Graphics/SVG/1.1/DTD/svg11.dtd">
<svg width="100%" height="100%" viewBox="0 0 800 800" version="1.1" xmlns="http://www.w3.org/2000/svg" xmlns:xlink="http://www.w3.org/1999/xlink" xml:space="preserve" xmlns:serif="http://www.serif.com/" style="fill-rule:evenodd;clip-rule:evenodd;stroke-linejoin:round;stroke-miterlimit:2;">
    <g id="New" transform="matrix(23.1174,2.84944e-31,2.84944e-31,23.1174,-30827.2,-21170.8)">
        <g transform="matrix(1,0,0,1,-63.5,-488.6)">
            <path d="M1421.9,1412L1402.5,1431.5L1404.6,1433.6L1424,1414.1L1425.5,1415.5L1405.7,1435.3L1399.1,1436.9L1400.7,1430.4L1420.5,1410.6L1421.9,1412Z"/>
        </g>
        <g transform="matrix(1,0,0,1,-63.5,-488.6)">
            <path d="M1429.3,1410.3L1425.8,1406.8C1425.4,1406.4 1424.8,1406.4 1424.4,1406.8L1422.1,1409.1L1427,1414L1429.3,1411.7C1429.6,1411.3 1429.6,1410.7 1429.3,1410.3Z"/>
        </g>
    </g>
</svg>
